<?xml version="1.0" standalone="no"?>
<!DOCTYPE svg PUBLIC "-//W3C//DTD SVG 20010904//EN"
 "http://www.w3.org/TR/2001/REC-SVG-20010904/DTD/svg10.dtd">
<svg version="1.0" xmlns="http://www.w3.org/2000/svg"
 width="512.000000pt" height="512.000000pt" viewBox="0 0 512.000000 512.000000"
 preserveAspectRatio="xMidYMid meet">

<g transform="translate(0.000000,512.000000) scale(0.100000,-0.100000)"
fill="#000000" stroke="none">
<path d="M1656 5040 c-225 -36 -451 -149 -615 -310 -134 -131 -223 -279 -269
-449 -24 -87 -26 -113 -26 -286 0 -167 2 -202 23 -285 70 -281 204 -541 393
-760 105 -120 196 -194 313 -250 125 -60 218 -82 355 -81 245 0 446 98 633
308 203 227 357 529 419 817 29 136 31 363 5 486 -42 194 -121 337 -271 486
-150 150 -320 247 -524 301 -109 28 -328 39 -436 23z m312 -406 c97 -19 239
-88 315 -151 185 -155 252 -341 216 -599 -35 -250 -175 -530 -359 -715 -95
-96 -162 -134 -257 -147 -148 -19 -260 26 -383 154 -220 229 -360 549 -360
822 0 178 44 299 153 417 172 188 424 270 675 219z"/>
<path d="M3801 3179 c-284 -33 -570 -191 -749 -413 -371 -461 -338 -1112 77
-1526 163 -163 356 -268 578 -314 382 -81 791 50 1062 340 422 452 410 1147
-28 1585 -188 187 -420 298 -686 329 -102 11 -149 11 -254 -1z m297 -410 c270
-60 494 -282 563 -559 20 -78 17 -269 -5 -348 -49 -180 -155 -330 -308 -433
-89 -61 -182 -97 -299 -116 -86 -14 -115 -15 -194 -5 -181 23 -314 89 -445
221 -146 147 -212 308 -212 516 0 212 65 369 217 520 122 123 250 189 420 216
59 9 197 3 263 -12z"/>
<path d="M3855 2601 c-86 -39 -139 -143 -116 -227 44 -160 220 -212 336 -100
64 62 82 144 46 221 -49 105 -166 152 -266 106z"/>
<path d="M3842 2069 c-26 -13 -55 -39 -70 -62 -27 -40 -27 -42 -27 -228 l0
-187 31 -39 c60 -76 157 -102 239 -64 46 21 101 79 112 119 5 15 8 97 8 182 0
162 -6 189 -54 244 -50 57 -161 73 -239 35z"/>
<path d="M1076 2234 c-44 -8 -127 -30 -184 -49 -470 -158 -783 -555 -842
-1070 -14 -131 -12 -351 4 -439 48 -248 215 -453 451 -553 128 -54 115 -54
1355 -51 l1145 3 70 23 c140 47 256 124 350 234 54 63 127 185 123 207 -2 7
-43 26 -93 43 -49 16 -130 48 -181 72 l-91 43 -18 -40 c-24 -54 -98 -127 -160
-157 l-50 -25 -1130 0 -1130 0 -55 26 c-69 33 -133 97 -167 169 -24 49 -27 69
-31 191 -7 233 31 413 122 572 108 189 277 322 496 389 74 22 82 22 713 26
l638 3 -7 22 c-9 29 -9 303 0 345 l8 32 -629 -1 c-499 -1 -644 -4 -707 -15z"/>
</g>
</svg>
