<?xml version="1.0" standalone="no"?>
<!DOCTYPE svg PUBLIC "-//W3C//DTD SVG 20010904//EN"
 "http://www.w3.org/TR/2001/REC-SVG-20010904/DTD/svg10.dtd">
<svg version="1.0" xmlns="http://www.w3.org/2000/svg"
 width="512.000000pt" height="512.000000pt" viewBox="0 0 512.000000 512.000000"
 preserveAspectRatio="xMidYMid meet">

<g transform="translate(0.000000,512.000000) scale(0.100000,-0.100000)"
fill="#000000" stroke="none">
<path d="M275 4791 c-85 -21 -166 -88 -207 -169 l-23 -47 0 -1655 0 -1655 28
-57 c16 -32 48 -75 73 -97 87 -76 -16 -71 1453 -71 l1316 0 105 -106 c154
-155 174 -161 287 -89 l70 45 99 -41 c54 -23 100 -42 102 -44 1 -1 7 -28 13
-61 14 -79 36 -122 70 -139 36 -19 374 -21 413 -3 37 16 54 48 71 130 9 39 17
73 18 74 1 1 47 20 101 43 l99 41 70 -45 c75 -48 110 -55 155 -31 15 8 82 70
150 139 l122 124 0 49 c0 40 -7 59 -40 109 -22 33 -40 64 -40 68 0 5 18 52 41
106 l40 98 66 12 c142 26 153 45 153 276 0 136 -3 174 -17 202 -19 40 -69 67
-146 78 -56 9 -60 14 -107 132 l-33 82 41 63 c35 53 42 73 42 112 0 46 -3 51
-75 125 l-75 77 -2 955 -3 954 -23 45 c-29 60 -84 115 -146 148 l-51 27 -2090
2 c-1149 0 -2103 -2 -2120 -6z m4205 -153 c33 -17 51 -35 67 -68 21 -41 23
-58 23 -222 l0 -178 -2195 0 -2195 0 0 178 c0 164 2 181 23 222 16 33 34 51
67 68 l44 22 2061 0 2061 0 44 -22z m90 -1228 l0 -620 -31 0 c-35 0 -54 -9
-124 -56 l-50 -34 -102 43 c-74 30 -103 48 -107 62 -2 11 -9 45 -16 77 -21
108 -64 128 -270 128 -215 0 -248 -18 -276 -149 l-16 -76 -101 -42 -101 -42
-50 33 c-72 47 -91 56 -121 56 -44 0 -75 -24 -202 -153 l-123 -124 0 -48 c0
-40 7 -60 42 -112 l41 -64 -33 -82 c-48 -119 -52 -123 -107 -132 -72 -10 -129
-39 -147 -74 -13 -24 -16 -65 -16 -201 0 -236 10 -255 153 -281 l66 -12 40
-98 c23 -54 41 -101 41 -105 0 -4 -17 -34 -37 -66 l-38 -58 -1296 0 -1296 0
-33 23 c-18 12 -43 35 -54 50 l-21 28 -3 1375 -2 1374 2195 0 2195 0 0 -620z
m-566 -557 c3 -10 10 -46 17 -81 6 -35 19 -71 28 -81 15 -18 300 -141 325
-141 7 0 45 21 85 46 l73 47 93 -93 93 -93 -44 -66 c-24 -36 -44 -78 -44 -92
0 -29 113 -306 133 -326 7 -7 50 -20 95 -29 l82 -17 0 -132 0 -132 -82 -17
c-45 -9 -88 -22 -95 -29 -21 -20 -133 -297 -133 -326 0 -15 20 -56 44 -92 l44
-66 -93 -93 -93 -93 -73 47 c-40 25 -78 46 -86 46 -20 0 -306 -120 -322 -135
-8 -8 -22 -49 -31 -92 l-16 -78 -134 0 -134 0 -16 78 c-9 43 -23 84 -31 92
-15 14 -304 135 -324 135 -6 0 -44 -21 -84 -47 l-73 -46 -94 94 -94 95 45 64
c26 37 45 75 45 91 0 29 -113 306 -133 326 -7 7 -50 20 -95 29 l-82 17 0 132
0 132 82 17 c45 9 88 22 95 29 19 19 133 299 133 327 0 14 -20 55 -44 91 l-44
66 93 93 93 93 73 -47 c40 -25 78 -46 85 -46 25 0 310 123 325 141 9 10 22 46
28 81 21 108 6 98 151 98 114 0 129 -2 134 -17z"/>
<path d="M614 4500 c-32 -13 -54 -50 -54 -91 0 -83 100 -120 161 -60 73 74 -9
191 -107 151z"/>
<path d="M1011 4483 c-66 -61 -30 -163 57 -163 78 0 124 74 86 138 -33 57 -97
68 -143 25z"/>
<path d="M2900 4460 c-27 -27 -25 -66 5 -95 23 -24 29 -25 153 -25 116 0 132
2 156 21 32 25 35 70 6 99 -18 18 -33 20 -160 20 -127 0 -142 -2 -160 -20z"/>
<path d="M3410 4460 c-29 -29 -26 -74 6 -99 24 -19 40 -21 156 -21 124 0 130
1 153 25 30 29 32 68 5 95 -18 18 -33 20 -160 20 -127 0 -142 -2 -160 -20z"/>
<path d="M3920 4460 c-29 -29 -26 -74 6 -99 24 -19 40 -21 156 -21 124 0 130
1 153 25 30 30 31 54 4 89 -20 26 -21 26 -160 26 -126 0 -141 -2 -159 -20z"/>
<path d="M600 3788 c-26 -14 -57 -41 -75 -66 l-30 -44 0 -538 0 -538 30 -43
c17 -23 50 -53 74 -66 l44 -23 514 0 c441 0 519 2 551 15 47 20 79 50 103 97
18 35 19 66 19 558 0 460 -2 525 -16 553 -23 45 -53 76 -96 98 -35 18 -66 19
-555 19 -518 0 -519 0 -563 -22z m1072 -135 c17 -15 18 -44 17 -517 l-1 -501
-22 70 c-44 136 -108 228 -205 293 -33 22 -65 42 -71 44 -7 2 2 29 21 66 140
271 -181 544 -423 359 -68 -52 -100 -113 -106 -201 -5 -80 6 -125 43 -180 l24
-35 -52 -29 c-109 -61 -225 -220 -243 -330 -18 -116 -24 -13 -24 444 0 449 2
499 17 516 15 17 44 18 511 18 447 0 497 -2 514 -17z m-433 -290 c47 -36 66
-71 65 -122 -1 -83 -60 -141 -144 -141 -84 0 -140 57 -140 141 0 115 130 188
219 122z m83 -445 c31 -14 77 -45 102 -68 49 -46 103 -142 113 -203 l6 -37
-383 0 -382 0 7 38 c24 126 122 239 248 284 79 28 213 21 289 -14z"/>
<path d="M2890 3790 c-29 -29 -26 -74 6 -99 26 -21 34 -21 669 -21 635 0 643
0 669 21 32 25 35 70 6 99 -20 20 -33 20 -675 20 -642 0 -655 0 -675 -20z"/>
<path d="M2920 3443 c-49 -18 -64 -68 -34 -111 l15 -22 664 0 664 0 15 22 c21
30 20 61 -3 89 l-19 24 -644 2 c-353 1 -650 -1 -658 -4z"/>
<path d="M512 2287 c-27 -29 -28 -71 -2 -97 20 -20 33 -20 1010 -20 977 0 990
0 1010 20 27 27 26 71 -3 98 l-23 22 -985 0 -986 0 -21 -23z"/>
<path d="M510 1920 c-29 -29 -26 -74 6 -99 27 -21 31 -21 931 -21 l904 0 24
25 c31 30 32 65 2 93 l-23 22 -912 0 c-899 0 -912 0 -932 -20z"/>
<path d="M506 1548 c-21 -30 -20 -61 3 -89 l19 -24 917 0 917 0 19 24 c25 30
24 66 -1 91 -20 20 -33 20 -939 20 l-920 0 -15 -22z"/>
<path d="M3716 2513 c-276 -59 -497 -275 -562 -551 -22 -88 -21 -247 0 -337
81 -341 406 -582 756 -562 324 19 598 247 675 562 22 89 22 247 1 337 -91 388
-481 635 -870 551z m289 -138 c298 -76 491 -353 454 -651 -10 -75 -45 -186
-72 -224 -13 -19 -16 -17 -50 38 -43 69 -123 147 -192 187 -27 16 -52 30 -54
31 -1 2 8 18 21 36 40 53 53 98 52 173 -1 165 -132 291 -299 289 -231 -2 -372
-263 -245 -453 l29 -44 -57 -34 c-74 -44 -144 -114 -189 -186 l-36 -58 -18 28
c-10 15 -30 64 -44 108 -55 162 -29 358 65 502 80 122 225 225 362 259 73 17
202 17 273 -1z m-65 -278 c30 -16 51 -37 67 -67 29 -54 29 -84 1 -140 -25 -48
-89 -90 -138 -90 -49 0 -113 42 -137 90 -13 24 -23 56 -23 70 0 49 42 113 90
138 56 28 86 28 140 -1z m82 -467 c95 -36 190 -133 231 -237 l16 -42 -47 -34
c-68 -50 -124 -76 -209 -98 -171 -43 -350 -8 -495 98 l-47 34 16 42 c50 127
147 216 273 252 73 20 187 14 262 -15z"/>
<path d="M2661 811 c-106 -14 -126 -20 -142 -40 -25 -30 -24 -52 3 -86 19 -25
26 -27 70 -23 l49 5 -121 -123 c-100 -102 -120 -127 -120 -152 0 -34 39 -72
73 -72 12 0 68 47 144 122 l123 122 0 -51 c0 -44 4 -55 27 -73 19 -15 35 -19
53 -15 47 11 55 34 74 200 l18 157 -23 24 c-27 29 -49 29 -228 5z"/>
</g>
</svg>
