<?xml version="1.0" standalone="no"?>
<!DOCTYPE svg PUBLIC "-//W3C//DTD SVG 20010904//EN"
 "http://www.w3.org/TR/2001/REC-SVG-20010904/DTD/svg10.dtd">
<svg version="1.0" xmlns="http://www.w3.org/2000/svg"
 width="512.000000pt" height="512.000000pt" viewBox="0 0 512.000000 512.000000"
 preserveAspectRatio="xMidYMid meet">

<g transform="translate(0.000000,512.000000) scale(0.100000,-0.100000)"
fill="#000000" stroke="none">
<path d="M2330 4565 l0 -145 95 0 95 0 0 145 0 145 -95 0 -95 0 0 -145z"/>
<path d="M1355 4438 c-38 -23 -71 -42 -73 -43 -3 -3 115 -244 123 -253 2 -2
41 16 88 40 l85 43 -70 120 c-38 66 -73 123 -76 127 -4 3 -38 -12 -77 -34z"/>
<path d="M3362 4355 c-40 -68 -72 -126 -72 -129 0 -7 161 -89 165 -84 17 19
124 252 118 258 -4 4 -37 24 -73 43 l-66 36 -72 -124z"/>
<path d="M2134 4015 c-464 -59 -879 -227 -1252 -507 -203 -153 -447 -414 -596
-638 -70 -105 -176 -292 -176 -310 0 -18 105 -203 178 -312 199 -300 485 -579
788 -770 250 -157 555 -279 845 -338 329 -67 714 -65 1049 5 656 138 1261 560
1632 1140 67 105 148 255 148 275 0 10 -23 60 -51 111 -333 607 -883 1057
-1529 1252 -120 36 -220 59 -374 84 -132 21 -522 26 -662 8z m566 -204 c243
-55 439 -162 622 -339 169 -163 290 -371 350 -599 30 -113 32 -127 32 -313 0
-186 -2 -200 -32 -313 -60 -227 -170 -417 -341 -588 -234 -234 -500 -354 -826
-374 -644 -40 -1223 421 -1336 1065 -19 106 -16 335 4 442 34 174 96 324 192
468 209 315 542 523 908 570 105 13 327 3 427 -19z m-1372 -282 c-316 -353
-440 -863 -323 -1325 60 -236 187 -471 349 -643 l41 -44 -80 42 c-374 199
-720 532 -942 909 l-54 92 54 93 c184 312 456 598 752 793 91 60 251 153 263
154 2 0 -25 -32 -60 -71z m2438 -101 c191 -129 383 -308 534 -498 56 -70 183
-258 221 -328 l23 -42 -24 -43 c-39 -71 -144 -228 -208 -311 -197 -255 -469
-488 -737 -632 -95 -51 -96 -49 -17 40 102 117 206 301 265 472 59 172 72 255
72 474 0 219 -13 302 -72 474 -59 171 -163 355 -265 472 -24 27 -50 58 -58 69
-22 28 142 -62 266 -147z"/>
<path d="M2309 3414 c-59 -20 -134 -77 -176 -132 -51 -68 -63 -124 -63 -301 0
-173 8 -204 69 -273 34 -40 38 -60 17 -109 -18 -43 -51 -72 -101 -88 -136 -44
-289 -150 -341 -237 -16 -26 -58 -78 -94 -116 l-65 -70 35 -29 c277 -237 557
-339 894 -326 203 7 343 41 501 120 105 52 182 105 258 177 l62 59 -56 58
c-31 32 -67 76 -80 98 -34 58 -106 132 -171 177 -69 46 -214 118 -240 118 -19
0 -54 48 -64 87 -4 16 4 30 35 58 23 21 46 53 52 74 6 22 9 111 7 231 -3 181
-5 198 -26 243 -33 65 -97 128 -167 162 -49 25 -73 30 -149 32 -64 2 -105 -2
-137 -13z m218 -200 c63 -47 68 -62 71 -227 l3 -152 -74 -62 c-41 -35 -80 -63
-86 -63 -6 0 -49 34 -97 76 l-85 77 3 138 c3 155 11 174 84 217 49 29 139 27
181 -4z m110 -820 c26 -16 54 -34 61 -41 7 -7 19 -13 26 -13 7 0 48 -17 92
-39 114 -55 204 -141 204 -195 0 -8 -45 -37 -112 -70 -250 -124 -517 -148
-786 -70 -93 27 -271 110 -279 130 -8 22 28 84 74 124 46 40 206 125 254 134
45 9 104 61 134 118 l29 55 65 -4 c36 -3 77 -1 90 5 23 8 28 4 62 -49 25 -39
53 -66 86 -85z"/>
<path d="M1343 863 c-57 -107 -61 -117 -45 -129 9 -7 43 -31 74 -53 l57 -41
57 97 c31 54 65 112 75 128 l18 31 -85 42 c-46 23 -85 42 -87 42 -1 0 -30 -53
-64 -117z"/>
<path d="M3368 939 c-43 -21 -78 -42 -78 -45 0 -5 137 -244 144 -251 2 -3 122
81 140 97 8 8 -111 241 -123 240 -3 -1 -41 -19 -83 -41z"/>
<path d="M2330 555 l0 -145 95 0 95 0 0 145 0 145 -95 0 -95 0 0 -145z"/>
</g>
</svg>
