<?xml version="1.0" standalone="no"?>
<!DOCTYPE svg PUBLIC "-//W3C//DTD SVG 20010904//EN"
 "http://www.w3.org/TR/2001/REC-SVG-20010904/DTD/svg10.dtd">
<svg version="1.0" xmlns="http://www.w3.org/2000/svg"
 width="512.000000pt" height="512.000000pt" viewBox="0 0 512.000000 512.000000"
 preserveAspectRatio="xMidYMid meet">

<g transform="translate(0.000000,512.000000) scale(0.100000,-0.100000)"
fill="#000000" stroke="none">
<path d="M1613 5065 c-20 -14 -24 -26 -49 -156 -4 -21 -17 -32 -56 -48 -28
-12 -57 -21 -65 -21 -8 0 -40 18 -72 39 -58 39 -70 44 -105 42 -22 -1 -231
-203 -252 -243 -17 -33 -8 -61 41 -129 19 -25 35 -53 35 -62 0 -11 -36 -103
-44 -114 -2 -2 -38 -10 -82 -19 -115 -23 -114 -20 -114 -228 0 -206 0 -206
119 -227 l74 -13 23 -53 c13 -30 24 -59 24 -66 0 -7 -21 -43 -45 -81 -32 -49
-43 -76 -39 -90 3 -12 61 -76 127 -143 92 -93 128 -123 147 -123 14 0 55 20
92 45 l67 45 53 -21 c29 -11 56 -24 60 -27 4 -4 14 -41 23 -82 22 -103 34
-114 140 -119 l84 -3 0 -137 c0 -204 38 -365 127 -530 l45 -83 -120 -245 c-67
-135 -121 -251 -121 -258 0 -24 41 -65 66 -65 13 0 132 54 263 120 l240 119
83 -44 c113 -60 247 -103 381 -122 213 -31 432 7 642 112 545 271 766 932 495
1480 -129 259 -355 460 -622 554 -129 45 -231 61 -389 61 l-139 0 0 88 c0 108
-6 115 -110 137 -41 9 -78 19 -81 23 -4 4 -17 30 -29 59 l-22 51 46 68 c25 38
46 80 46 93 0 37 -237 274 -273 274 -15 0 -55 -19 -90 -42 -35 -22 -70 -41
-78 -41 -8 0 -37 11 -65 24 l-50 23 -13 73 c-21 118 -25 120 -228 120 -134 0
-173 -3 -190 -15z m281 -142 c3 -10 8 -36 12 -58 13 -76 24 -87 140 -134 59
-24 117 -43 129 -43 12 0 47 17 79 37 l57 38 63 -62 64 -63 -39 -61 c-21 -33
-39 -68 -39 -78 0 -27 89 -233 106 -245 8 -7 44 -17 80 -24 l65 -12 -3 -91 -3
-91 -65 -13 c-36 -7 -72 -21 -81 -31 -20 -20 -99 -213 -99 -239 0 -10 18 -45
40 -78 l40 -60 -63 -63 -64 -64 -58 41 c-32 23 -67 41 -77 41 -25 0 -218 -79
-240 -98 -9 -8 -22 -40 -28 -71 -20 -98 -11 -91 -106 -91 -95 0 -95 0 -109 93
-4 27 -16 53 -29 65 -23 22 -209 102 -236 102 -9 0 -45 -18 -80 -41 l-63 -40
-58 57 c-33 32 -59 63 -59 69 0 6 16 34 36 64 30 44 35 60 31 90 -6 45 -81
221 -99 232 -7 5 -38 13 -68 19 -30 6 -61 13 -67 15 -9 3 -13 31 -13 93 l0 88
65 13 c36 7 74 21 85 30 23 20 100 203 100 240 0 14 -16 50 -35 78 -19 29 -35
56 -35 60 0 10 112 123 123 123 4 0 31 -16 60 -35 28 -19 64 -35 79 -35 38 0
219 76 239 100 9 11 22 49 29 85 l12 65 88 0 c76 0 89 -3 94 -17z m1279 -967
c342 -103 594 -367 679 -713 30 -123 30 -313 0 -436 -46 -187 -130 -338 -261
-468 -322 -320 -793 -377 -1191 -144 -42 25 -84 45 -93 45 -10 0 -89 -36 -177
-80 -88 -44 -162 -80 -165 -80 -3 0 31 72 75 160 44 88 80 171 80 185 0 13
-19 55 -42 92 -104 171 -154 377 -138 578 4 60 8 71 28 81 39 19 44 29 61 114
l16 82 60 24 59 24 68 -45 c39 -26 79 -45 95 -45 38 0 273 233 273 271 0 14
-20 57 -45 96 l-45 70 24 59 24 59 80 15 c85 17 112 31 112 60 0 10 6 21 13
24 6 3 82 4 167 2 132 -3 168 -7 243 -30z"/>
<path d="M1683 4636 c-188 -46 -344 -202 -388 -387 -42 -182 6 -351 139 -485
109 -110 220 -156 371 -155 143 0 260 47 361 146 103 101 154 224 154 376 0
152 -57 280 -171 384 -123 112 -306 159 -466 121z m271 -159 c74 -34 159 -116
193 -186 25 -50 28 -67 28 -161 0 -99 -2 -110 -32 -171 -141 -286 -549 -281
-686 9 -29 61 -32 75 -31 162 1 108 19 163 80 237 108 132 298 178 448 110z"/>
<path d="M2835 3671 c-96 -26 -179 -91 -223 -176 -24 -44 -27 -62 -27 -145 0
-84 3 -101 27 -146 14 -27 34 -56 42 -63 25 -21 20 -28 -43 -61 -167 -89 -307
-299 -314 -470 -4 -91 -47 -85 604 -88 l569 -2 25 24 c14 14 25 33 25 43 -1
49 -33 162 -66 231 -46 95 -168 222 -256 266 l-57 28 30 44 c16 24 37 63 45
86 20 56 19 157 -1 219 -22 64 -100 150 -169 184 -56 27 -159 40 -211 26z
m126 -143 c53 -17 88 -46 110 -90 22 -43 27 -117 11 -159 -42 -109 -182 -151
-282 -85 -57 37 -83 94 -78 167 5 74 37 121 102 154 55 28 86 31 137 13z m24
-518 c140 -23 281 -127 343 -253 53 -107 96 -97 -423 -97 -378 0 -455 2 -455
14 0 7 16 45 35 83 62 124 184 219 319 248 76 17 105 17 181 5z"/>
<path d="M180 3198 c-61 -32 -110 -105 -110 -162 0 -24 13 -89 29 -147 34
-119 495 -1356 546 -1463 83 -175 180 -286 376 -431 165 -123 227 -180 285
-266 46 -67 48 -71 29 -81 -11 -6 -37 -28 -57 -49 -51 -53 -60 -106 -56 -334
3 -182 4 -187 27 -206 22 -18 47 -19 615 -19 l593 0 21 23 c21 22 22 31 22
237 0 198 -2 217 -21 258 -25 51 -89 97 -149 107 -38 6 -39 7 -54 73 -17 79
-32 184 -46 338 -26 285 -107 438 -326 619 -197 163 -377 320 -503 439 -148
139 -221 181 -312 180 -41 -1 -69 -8 -103 -27 l-46 -26 -40 72 c-37 66 -98
189 -281 562 -106 219 -203 312 -332 322 -52 4 -69 1 -107 -19z m139 -133 c51
-26 120 -115 170 -219 27 -56 92 -189 143 -296 52 -107 123 -244 157 -305 59
-102 63 -115 66 -180 2 -42 12 -92 24 -124 49 -122 177 -281 370 -458 120
-111 150 -124 191 -83 42 42 31 62 -139 229 -174 172 -228 235 -273 325 -43
85 -43 146 0 188 23 24 40 32 65 31 52 -1 87 -25 204 -135 121 -114 345 -309
506 -441 155 -126 226 -225 262 -363 8 -31 22 -126 30 -210 14 -140 39 -311
50 -341 3 -10 -65 -13 -320 -13 l-325 0 -29 59 c-65 128 -170 236 -376 385
-152 111 -243 213 -315 356 -49 96 -524 1370 -551 1477 -23 90 -23 92 -5 112
22 25 56 27 95 6z m2021 -2555 c18 -18 20 -33 20 -175 l0 -155 -500 0 -500 0
0 150 c0 147 1 152 25 175 l24 25 456 0 c442 0 456 -1 475 -20z"/>
<path d="M4742 3194 c-90 -45 -162 -135 -249 -314 -169 -347 -234 -478 -273
-547 l-40 -72 -46 26 c-34 19 -62 26 -103 27 -91 1 -164 -41 -312 -180 -126
-119 -306 -276 -503 -439 -219 -181 -300 -334 -326 -619 -13 -142 -27 -243
-46 -332 -15 -71 -15 -72 -51 -79 -60 -11 -111 -43 -140 -87 l-28 -41 -3 -225
c-3 -221 -3 -225 19 -248 l22 -24 593 0 c568 0 593 1 615 19 23 19 24 24 27
206 4 228 -5 281 -56 334 -20 21 -46 43 -57 49 -19 10 -17 14 29 81 58 86 120
143 285 266 196 145 293 256 377 432 50 107 518 1362 548 1473 35 129 34 166
-6 226 -64 93 -172 120 -276 68z m154 -135 c18 -20 18 -22 -5 -112 -27 -107
-502 -1381 -551 -1477 -72 -143 -166 -249 -320 -360 -199 -144 -307 -255 -371
-382 l-29 -58 -326 0 c-179 0 -323 3 -321 8 10 15 38 202 52 344 23 226 44
297 121 405 47 65 77 93 289 269 141 117 272 232 406 360 133 126 191 146 251
86 43 -42 43 -103 0 -188 -45 -90 -99 -153 -273 -325 -170 -167 -181 -187
-139 -229 41 -41 71 -28 191 83 193 177 321 336 370 458 12 32 22 82 24 124 3
65 7 78 66 180 56 98 113 213 294 590 94 195 210 291 271 224z m-1161 -2554
c24 -23 25 -28 25 -175 l0 -150 -500 0 -500 0 0 159 c0 154 1 160 22 175 20
14 82 16 476 16 l453 0 24 -25z"/>
</g>
</svg>
