<?xml version="1.0" standalone="no"?>
<!DOCTYPE svg PUBLIC "-//W3C//DTD SVG 20010904//EN"
 "http://www.w3.org/TR/2001/REC-SVG-20010904/DTD/svg10.dtd">
<svg version="1.0" xmlns="http://www.w3.org/2000/svg"
 width="512.000000pt" height="512.000000pt" viewBox="0 0 512.000000 512.000000"
 preserveAspectRatio="xMidYMid meet">

<g transform="translate(0.000000,512.000000) scale(0.100000,-0.100000)"
fill="#000000" stroke="none">
<path d="M2365 4520 c-622 -71 -1156 -405 -1477 -923 -197 -317 -311 -733
-296 -1088 l4 -99 -122 120 c-133 132 -153 142 -200 94 -20 -19 -24 -31 -19
-52 4 -17 81 -102 208 -229 170 -170 208 -203 232 -203 24 0 61 32 223 193
106 105 200 204 208 219 23 45 -9 98 -59 98 -26 0 -53 -23 -177 -146 l-147
-145 -7 62 c-17 165 5 403 54 594 246 955 1207 1543 2169 1329 260 -58 484
-163 723 -339 58 -43 118 -17 118 50 0 29 -8 40 -59 80 -239 183 -557 317
-881 370 -117 19 -387 27 -495 15z"/>
<path d="M2500 3920 c-18 -18 -20 -33 -20 -140 0 -107 2 -122 20 -140 11 -11
33 -20 50 -20 17 0 39 9 50 20 18 18 20 33 20 140 0 107 -2 122 -20 140 -11
11 -33 20 -50 20 -17 0 -39 -9 -50 -20z"/>
<path d="M3088 3773 c-31 -35 -118 -192 -118 -213 0 -26 42 -70 67 -70 33 0
59 28 111 118 58 100 65 141 30 166 -30 21 -71 20 -90 -1z"/>
<path d="M1920 3760 c-11 -11 -20 -30 -20 -42 0 -29 106 -215 130 -228 46 -25
100 6 100 57 0 32 -103 218 -126 227 -30 12 -64 6 -84 -14z"/>
<path d="M2365 3421 c-229 -62 -397 -203 -495 -414 -49 -107 -70 -203 -70
-324 0 -176 27 -256 144 -427 79 -115 95 -161 107 -310 10 -126 27 -175 77
-225 24 -24 26 -31 23 -102 -4 -102 28 -160 102 -188 25 -10 27 -15 27 -63 0
-67 28 -128 71 -159 33 -23 41 -24 199 -24 158 0 166 1 199 24 43 31 71 92 71
159 0 48 2 53 28 63 73 28 105 86 101 188 -3 74 -2 77 31 111 47 50 59 85 70
212 12 151 29 202 105 312 118 174 145 252 145 431 0 331 -202 614 -515 721
-109 37 -312 44 -420 15z m355 -147 c211 -63 376 -237 426 -451 20 -86 14
-255 -11 -327 -10 -27 -47 -91 -82 -143 -36 -53 -76 -119 -89 -148 -31 -68
-54 -173 -54 -253 0 -71 -19 -125 -48 -141 -14 -7 -123 -11 -314 -11 -328 0
-329 0 -348 68 -5 20 -10 64 -10 98 0 75 -30 194 -66 266 -14 29 -51 86 -80
126 -29 40 -63 99 -75 130 -27 72 -37 225 -19 314 16 84 76 211 131 275 87
104 233 190 361 212 71 13 210 5 278 -15z m85 -1664 l0 -45 -255 0 -255 0 -3
33 c-6 65 -18 63 260 60 l253 -3 0 -45z m-136 -204 c7 -8 11 -30 9 -48 l-3
-33 -125 0 -125 0 -3 33 c-6 56 8 62 128 62 81 0 110 -4 119 -14z"/>
<path d="M3448 3314 c-54 -30 -103 -64 -109 -76 -22 -41 12 -98 59 -98 31 0
217 103 226 126 19 49 -11 104 -56 104 -13 0 -67 -25 -120 -56z"/>
<path d="M1497 3332 c-22 -24 -22 -75 1 -94 37 -34 192 -118 216 -118 15 0 33
10 45 26 42 54 23 83 -99 153 -96 54 -136 63 -163 33z"/>
<path d="M4194 2818 c-111 -112 -204 -210 -207 -219 -9 -26 20 -78 46 -85 38
-9 62 8 203 148 97 96 134 127 140 117 15 -25 9 -396 -9 -499 -90 -522 -368
-954 -796 -1241 -612 -408 -1417 -409 -2020 -1 -62 42 -124 83 -137 90 -45 25
-94 -8 -94 -63 0 -29 8 -40 59 -80 403 -310 972 -451 1483 -369 784 126 1408
693 1603 1458 46 181 59 292 60 498 l0 176 116 -113 c118 -116 150 -136 189
-115 20 11 40 47 40 73 0 6 -93 105 -207 219 -179 180 -212 208 -238 208 -26
0 -58 -28 -231 -202z"/>
<path d="M3490 2770 c-11 -11 -20 -33 -20 -50 0 -17 9 -39 20 -50 18 -18 33
-20 140 -20 107 0 122 2 140 20 11 11 20 33 20 50 0 17 -9 39 -20 50 -18 18
-33 20 -140 20 -107 0 -122 -2 -140 -20z"/>
<path d="M1350 2750 c-11 -11 -20 -33 -20 -50 0 -17 9 -39 20 -50 18 -18 33
-20 140 -20 107 0 122 2 140 20 11 11 20 33 20 50 0 17 -9 39 -20 50 -18 18
-33 20 -140 20 -107 0 -122 -2 -140 -20z"/>
<path d="M3365 2275 c-50 -49 -29 -83 93 -153 96 -56 138 -64 165 -34 22 24
22 75 0 95 -32 28 -194 117 -214 117 -11 0 -31 -11 -44 -25z"/>
<path d="M1601 2226 c-52 -30 -98 -60 -102 -68 -26 -41 7 -108 54 -108 12 0
67 26 122 58 115 66 134 92 98 140 -33 44 -65 40 -172 -22z"/>
</g>
</svg>
