<?xml version="1.0" standalone="no"?>
<!DOCTYPE svg PUBLIC "-//W3C//DTD SVG 20010904//EN"
 "http://www.w3.org/TR/2001/REC-SVG-20010904/DTD/svg10.dtd">
<svg version="1.0" xmlns="http://www.w3.org/2000/svg"
 width="512.000000pt" height="512.000000pt" viewBox="0 0 512.000000 512.000000"
 preserveAspectRatio="xMidYMid meet">

<g transform="translate(0.000000,512.000000) scale(0.100000,-0.100000)"
fill="#000000" stroke="none">
<path d="M2203 4927 c-182 -106 -340 -201 -352 -211 -21 -19 -21 -25 -21 -426
0 -374 1 -410 18 -429 21 -25 690 -411 712 -411 9 0 115 57 236 126 120 69
274 158 342 197 68 38 129 79 137 91 13 17 15 88 15 426 l0 407 -22 20 c-13
12 -142 90 -288 174 -146 84 -295 170 -331 191 -36 21 -77 38 -90 38 -13 -1
-173 -87 -356 -193z m608 -124 c131 -76 235 -141 231 -144 -4 -4 -114 -68
-244 -144 l-237 -136 -247 142 c-163 94 -242 145 -233 150 8 4 115 66 239 138
124 72 231 131 239 131 8 0 122 -62 252 -137z m-516 -456 l180 -105 3 -285 2
-286 -217 126 c-120 69 -230 132 -245 141 l-28 16 0 284 0 284 63 -35 c34 -20
143 -82 242 -140z m823 -399 c-7 -4 -118 -68 -246 -142 l-232 -135 2 286 3
285 240 139 240 138 3 -281 c2 -219 -1 -284 -10 -290z"/>
<path d="M716 4012 c-30 -7 -687 -390 -702 -409 -11 -14 -13 -99 -14 -420 l0
-402 23 -25 c31 -35 680 -406 710 -406 13 0 104 46 203 103 98 57 253 146 343
198 138 79 166 99 178 127 11 27 13 107 11 422 -3 374 -4 390 -23 409 -23 22
-631 377 -679 395 -17 7 -39 11 -50 8z m267 -312 c130 -74 236 -137 237 -140
0 -3 -108 -67 -240 -143 -164 -95 -246 -137 -258 -132 -31 12 -472 268 -472
274 0 10 474 281 486 278 6 -1 117 -63 247 -137z m-555 -434 l222 -129 0 -284
0 -284 -52 30 c-29 16 -138 79 -243 140 l-190 110 -3 287 -2 287 22 -15 c13
-8 123 -72 246 -142z m882 -135 l0 -278 -241 -139 c-133 -77 -246 -140 -250
-142 -5 -2 -9 124 -9 280 l0 283 238 137 c130 75 243 137 250 138 9 0 12 -62
12 -279z"/>
<path d="M4354 4005 c-52 -22 -658 -376 -679 -396 -19 -19 -20 -35 -23 -409
-2 -317 0 -395 11 -422 15 -35 0 -25 521 -325 99 -57 191 -103 204 -103 30 0
678 371 710 406 l22 25 0 403 c0 384 -1 403 -19 423 -11 11 -84 58 -163 103
-79 46 -226 131 -328 190 -102 59 -194 109 -206 112 -12 3 -34 0 -50 -7z m278
-302 c131 -76 238 -141 238 -144 0 -7 -456 -272 -477 -277 -19 -5 -493 271
-484 281 13 13 464 275 475 276 5 1 117 -61 248 -136z m328 -567 l0 -284 -202
-118 c-112 -64 -222 -128 -245 -141 l-43 -25 0 285 0 285 243 140 c133 77 243
141 245 141 1 1 2 -127 2 -283z m-889 137 l239 -138 0 -283 c0 -156 -4 -282
-8 -280 -5 2 -117 66 -250 142 l-242 140 0 278 c0 197 3 278 11 278 6 0 119
-62 250 -137z"/>
<path d="M2505 3215 l-25 -24 0 -290 c0 -290 0 -290 23 -317 17 -20 33 -27 57
-27 24 0 40 7 57 27 23 27 23 27 23 317 l0 290 -25 24 c-15 16 -36 25 -55 25
-19 0 -40 -9 -55 -25z"/>
<path d="M2423 2300 c-28 -11 -38 -28 -71 -114 l-27 -68 -81 -28 c-45 -15
-108 -42 -141 -59 l-59 -32 -79 36 c-55 25 -86 34 -105 30 -16 -4 -64 -43
-119 -99 -106 -109 -109 -118 -60 -228 l31 -70 -37 -74 c-20 -40 -46 -104 -58
-140 l-22 -67 -75 -28 c-109 -42 -110 -44 -110 -208 0 -162 1 -163 116 -206
l70 -26 23 -72 c13 -40 39 -103 58 -141 l35 -69 -31 -70 c-49 -111 -47 -117
68 -230 72 -71 105 -97 124 -97 14 0 55 13 92 30 37 16 71 30 77 30 5 0 42
-15 81 -34 40 -19 101 -44 137 -55 l65 -21 33 -84 c24 -62 39 -86 58 -95 14
-6 77 -11 148 -11 151 0 160 5 202 115 l29 75 55 16 c30 9 92 33 137 55 45 21
86 39 91 39 6 0 40 -14 77 -30 37 -17 78 -30 92 -30 19 0 52 26 124 97 115
113 117 119 68 230 l-31 70 35 69 c19 38 45 101 58 141 l23 72 70 26 c115 43
116 44 116 206 0 164 -1 166 -110 208 l-75 28 -22 67 c-12 36 -38 100 -58 140
l-37 74 31 70 c49 110 46 119 -60 228 -55 56 -103 95 -119 99 -19 4 -50 -5
-105 -30 l-79 -36 -59 32 c-33 17 -96 44 -141 59 l-81 28 -30 76 c-44 111 -43
111 -193 113 -70 2 -137 -2 -149 -7z m216 -223 c15 -37 36 -76 46 -86 11 -11
49 -26 85 -35 36 -9 115 -41 175 -71 61 -30 116 -55 123 -55 7 0 45 14 85 30
l71 31 37 -38 38 -38 -30 -64 c-16 -35 -29 -76 -29 -91 0 -15 16 -54 35 -86
38 -63 68 -138 91 -224 17 -67 41 -91 122 -120 l63 -23 -3 -55 -3 -55 -65 -24
c-36 -14 -72 -31 -82 -40 -9 -8 -24 -46 -33 -85 -10 -38 -42 -118 -71 -176
-30 -59 -54 -117 -54 -130 0 -12 14 -52 30 -89 l30 -67 -32 -33 c-17 -18 -36
-33 -42 -33 -5 0 -44 14 -86 31 l-77 32 -94 -51 c-52 -28 -134 -63 -184 -77
-49 -14 -95 -31 -102 -38 -7 -7 -25 -43 -41 -82 l-29 -70 -53 0 -53 0 -29 70
c-16 39 -34 75 -41 82 -7 7 -52 24 -102 38 -49 14 -132 49 -184 77 l-94 50
-76 -31 c-42 -17 -81 -31 -87 -31 -5 0 -25 15 -42 33 l-32 33 30 67 c16 37 30
77 30 90 0 13 -22 66 -49 118 -28 52 -59 130 -71 174 -12 44 -29 88 -38 97
-10 9 -46 28 -82 41 l-65 24 -3 55 -3 55 63 23 c65 23 118 67 118 98 0 34 49
164 90 238 22 40 40 84 40 97 0 13 -13 53 -29 88 l-30 64 38 38 38 39 68 -31
c37 -17 75 -31 84 -31 9 0 66 25 126 55 61 30 139 62 175 71 74 18 100 38 119
91 39 107 37 104 93 101 l50 -3 27 -68z"/>
<path d="M2463 1730 c-221 -40 -411 -214 -468 -430 -19 -72 -19 -221 0 -294
50 -191 198 -345 395 -412 77 -26 263 -26 340 0 197 67 345 221 394 412 20 78
21 212 1 289 -49 193 -204 356 -393 415 -75 23 -198 32 -269 20z m172 -161
c132 -24 251 -115 308 -237 30 -63 32 -74 32 -177 0 -103 -2 -114 -32 -177
-142 -300 -547 -334 -733 -63 -79 115 -93 289 -33 417 55 118 165 206 293 234
71 16 94 16 165 3z"/>
<path d="M680 2081 l-31 -31 3 -175 3 -175 225 -225 c124 -124 236 -228 249
-232 57 -14 111 37 97 92 -5 20 -76 99 -212 235 l-204 206 0 141 c0 158 -7
178 -67 189 -27 5 -37 1 -63 -25z"/>
<path d="M4353 2100 c-37 -15 -43 -42 -43 -186 l0 -138 -204 -206 c-136 -136
-207 -215 -212 -235 -14 -55 40 -106 97 -92 13 4 125 108 249 232 l225 225 3
175 3 175 -30 30 c-30 31 -50 35 -88 20z"/>
</g>
</svg>
