<?xml version="1.0" standalone="no"?>
<!DOCTYPE svg PUBLIC "-//W3C//DTD SVG 20010904//EN"
 "http://www.w3.org/TR/2001/REC-SVG-20010904/DTD/svg10.dtd">
<svg version="1.0" xmlns="http://www.w3.org/2000/svg"
 width="512.000000pt" height="512.000000pt" viewBox="0 0 512.000000 512.000000"
 preserveAspectRatio="xMidYMid meet">

<g transform="translate(0.000000,512.000000) scale(0.100000,-0.100000)"
fill="#000000" stroke="none">
<path d="M2848 4066 c-139 -38 -228 -181 -198 -318 8 -41 8 -54 -2 -63 -7 -7
-105 -88 -218 -180 -263 -215 -239 -192 -211 -211 13 -9 36 -36 51 -61 l28
-44 230 190 230 191 49 -22 c64 -29 161 -29 224 -1 176 79 220 312 84 448 -69
68 -175 97 -267 71z"/>
<path d="M3465 4055 c-33 -33 -33 -78 1 -112 21 -21 32 -24 62 -20 45 8 61 24
69 69 11 74 -79 117 -132 63z"/>
<path d="M3705 4055 c-33 -32 -33 -78 0 -111 l25 -25 395 3 c438 3 420 0 432
70 4 30 1 41 -20 62 l-26 26 -391 0 -391 0 -24 -25z"/>
<path d="M3465 3735 c-33 -33 -33 -78 1 -112 21 -21 32 -24 62 -20 45 8 61 24
69 69 11 74 -79 117 -132 63z"/>
<path d="M3705 3735 c-33 -32 -33 -78 0 -111 l25 -25 395 3 c438 3 420 0 432
70 4 30 1 41 -20 62 l-26 26 -391 0 -391 0 -24 -25z"/>
<path d="M865 3419 c-138 -123 -205 -177 -215 -173 -58 26 -129 36 -183 25
-240 -50 -303 -366 -100 -500 207 -138 479 51 421 291 l-15 60 181 160 c100
89 189 169 200 179 18 16 17 18 -25 60 -24 24 -48 51 -54 60 -8 14 -41 -11
-210 -162z"/>
<path d="M1522 3529 c-13 -16 -40 -38 -59 -48 l-35 -18 166 -132 c92 -73 172
-134 179 -137 7 -2 21 12 32 32 10 19 32 46 47 59 l28 23 -159 126 c-88 69
-163 126 -168 125 -4 0 -19 -13 -31 -30z"/>
<path d="M3465 3415 c-33 -33 -33 -78 1 -112 21 -21 32 -24 62 -20 45 8 61 24
69 69 11 74 -79 117 -132 63z"/>
<path d="M3705 3415 c-33 -32 -33 -78 0 -111 l25 -25 395 3 c438 3 420 0 432
70 4 30 1 41 -20 62 l-26 26 -391 0 -391 0 -24 -25z"/>
<path d="M2585 3015 l-25 -24 0 -678 c0 -660 1 -679 21 -723 25 -55 62 -95
114 -123 l40 -22 933 0 934 0 19 24 c26 32 24 77 -6 106 l-24 25 -655 0 -655
0 -3 463 c-3 442 -4 463 -23 495 -39 64 -74 77 -215 77 -141 0 -176 -13 -215
-77 -19 -32 -20 -53 -23 -495 -3 -505 -2 -494 -57 -438 l-25 24 0 671 0 671
-25 24 c-15 16 -36 25 -55 25 -19 0 -40 -9 -55 -25z"/>
<path d="M755 1359 c-247 -132 -454 -244 -459 -249 -12 -12 74 -139 148 -218
215 -231 545 -355 852 -322 242 26 446 118 616 278 188 178 295 404 323 685
l7 67 -519 0 -518 -1 -450 -240z"/>
</g>
</svg>
