<?xml version="1.0" standalone="no"?>
<!DOCTYPE svg PUBLIC "-//W3C//DTD SVG 20010904//EN"
 "http://www.w3.org/TR/2001/REC-SVG-20010904/DTD/svg10.dtd">
<svg version="1.0" xmlns="http://www.w3.org/2000/svg"
 width="512.000000pt" height="512.000000pt" viewBox="0 0 512.000000 512.000000"
 preserveAspectRatio="xMidYMid meet">

<g transform="translate(0.000000,512.000000) scale(0.100000,-0.100000)"
fill="#000000" stroke="none">
<path d="M2494 5030 c-88 -12 -140 -28 -155 -47 -10 -11 -14 -49 -15 -127 0
-126 -16 -179 -66 -221 -68 -58 -171 -10 -294 138 -43 51 -71 49 -156 -11
-154 -109 -290 -242 -396 -388 -71 -97 -70 -108 21 -203 77 -81 106 -130 114
-192 5 -34 1 -43 -29 -73 -44 -44 -95 -57 -217 -55 -57 1 -107 -3 -119 -10
-20 -10 -30 -36 -47 -116 -16 -71 3 -65 -206 -65 -104 0 -189 3 -189 6 0 3
-16 94 -36 202 -40 220 -66 292 -134 366 -92 100 -204 146 -354 146 -84 0 -95
-2 -114 -23 -29 -31 -29 -77 0 -104 19 -17 40 -22 113 -25 115 -6 179 -32 240
-100 24 -27 48 -63 54 -81 6 -18 126 -664 266 -1437 141 -773 263 -1439 271
-1480 47 -230 224 -370 466 -370 43 0 78 -2 78 -5 0 -2 -11 -21 -25 -41 -41
-60 -58 -135 -53 -234 5 -110 43 -193 118 -264 205 -192 523 -132 643 122 29
61 32 75 32 167 0 89 -3 107 -28 160 -15 33 -35 67 -44 77 -15 17 9 18 580 18
l596 0 -29 -47 c-107 -173 -57 -421 106 -534 81 -55 138 -73 239 -73 118 0
184 25 266 102 142 131 173 311 85 485 l-34 67 228 0 c215 0 229 1 254 21 46
36 32 108 -25 128 -23 8 -469 11 -1554 11 -1127 0 -1531 3 -1556 12 -115 39
-179 131 -204 295 l-7 43 1621 0 1620 0 26 23 c23 20 53 132 310 1147 157 619
285 1137 285 1151 0 14 -10 35 -23 47 -23 22 -28 22 -364 22 l-341 0 -7 51
c-4 29 -16 61 -29 76 -21 25 -28 26 -132 28 -89 1 -118 6 -162 25 -139 61
-134 152 18 301 54 53 80 85 80 101 0 73 -241 348 -420 480 -41 30 -85 58 -97
62 -31 10 -60 -8 -119 -73 -89 -97 -196 -138 -256 -99 -48 32 -63 81 -64 217
-2 152 -3 154 -135 182 -106 23 -390 34 -495 19z m316 -150 c159 -17 146 -8
153 -103 10 -143 65 -251 154 -304 42 -24 58 -28 128 -28 71 0 89 4 147 33 36
18 89 53 117 78 l51 46 28 -18 c42 -28 215 -198 264 -262 l45 -57 -51 -57
c-29 -32 -66 -83 -82 -115 -25 -51 -29 -69 -29 -145 0 -80 2 -89 30 -129 64
-92 171 -146 310 -157 l80 -7 8 -60 c9 -67 2 -331 -11 -385 l-8 -35 -89 -6
c-212 -15 -325 -114 -325 -284 0 -60 5 -81 34 -140 18 -39 52 -91 75 -117 22
-25 41 -49 41 -53 0 -4 -25 -39 -56 -76 -62 -77 -149 -159 -230 -221 l-54 -40
-59 55 c-239 220 -504 114 -541 -217 -5 -43 -12 -82 -16 -85 -9 -9 -371 -7
-425 2 l-47 8 -4 87 c-7 115 -36 191 -98 252 -113 113 -277 101 -441 -32 l-57
-46 -38 30 c-65 52 -192 179 -246 245 l-50 63 52 57 c224 252 113 521 -226
550 l-72 6 -6 51 c-9 80 -7 242 5 336 l11 87 82 6 c149 11 236 53 301 146 28
40 30 49 30 134 0 86 -2 96 -35 156 -18 35 -54 85 -78 112 l-44 49 64 76 c61
75 217 220 262 243 19 11 27 7 71 -34 28 -25 81 -61 119 -80 59 -30 79 -35
139 -35 88 0 141 24 197 87 53 61 82 139 88 240 l4 83 32 5 c33 5 97 11 161
13 22 1 83 -3 135 -8z m-1706 -1502 c3 -73 13 -169 21 -213 19 -108 28 -115
154 -115 162 0 251 -46 251 -129 0 -62 -33 -118 -118 -198 -60 -57 -75 -78
-75 -101 0 -105 431 -542 535 -542 20 0 44 17 95 68 139 139 257 151 309 30
14 -33 18 -71 18 -161 1 -148 0 -147 158 -173 217 -34 571 -15 620 34 15 14
18 37 20 127 3 96 6 117 30 165 32 64 57 83 110 82 54 -1 112 -38 190 -121 84
-89 99 -91 201 -22 152 103 280 229 390 383 67 94 65 113 -23 204 -83 85 -115
148 -107 208 11 81 108 123 255 112 95 -7 117 0 137 48 21 49 44 198 51 329
l7 117 264 0 c192 0 263 -3 263 -12 0 -8 -439 -1751 -511 -2030 l-10 -38
-1593 0 -1593 0 -11 58 c-7 31 -86 487 -177 1012 -91 525 -168 967 -171 983
l-6 27 155 0 154 0 7 -132z m917 -2656 c179 -94 179 -343 0 -435 -62 -31 -148
-37 -205 -13 -47 19 -104 73 -129 120 -30 58 -30 165 1 223 63 121 213 168
333 105z m1783 16 c26 -8 60 -31 91 -63 99 -99 102 -235 8 -336 -58 -62 -111
-83 -197 -77 -126 8 -216 97 -224 223 -2 35 1 79 7 98 43 128 178 195 315 155z"/>
<path d="M2540 4325 c-340 -73 -594 -307 -697 -642 -24 -80 -27 -103 -27 -248
0 -146 3 -168 28 -250 90 -295 312 -523 596 -613 255 -81 540 -45 760 96 422
271 548 825 284 1249 -119 191 -310 331 -539 396 -92 25 -312 32 -405 12z
m357 -161 c269 -66 474 -270 549 -545 24 -88 24 -280 0 -368 -152 -556 -807
-751 -1240 -370 -93 82 -178 226 -217 365 -31 109 -31 268 -1 377 113 404 509
640 909 541z"/>
<path d="M4156 2088 c-20 -18 -33 -55 -64 -173 l-39 -150 -144 -3 c-131 -2
-145 -4 -166 -24 -29 -27 -31 -80 -3 -108 19 -19 33 -20 213 -20 179 0 195 1
212 19 17 20 115 366 115 409 0 30 -43 72 -74 72 -14 0 -36 -10 -50 -22z"/>
</g>
</svg>
