<?xml version="1.0" standalone="no"?>
<!DOCTYPE svg PUBLIC "-//W3C//DTD SVG 20010904//EN"
 "http://www.w3.org/TR/2001/REC-SVG-20010904/DTD/svg10.dtd">
<svg version="1.0" xmlns="http://www.w3.org/2000/svg"
 width="512.000000pt" height="512.000000pt" viewBox="0 0 512.000000 512.000000"
 preserveAspectRatio="xMidYMid meet">

<g transform="translate(0.000000,512.000000) scale(0.100000,-0.100000)"
fill="#000000" stroke="none">
<path d="M3245 5013 c-708 -91 -1255 -618 -1386 -1333 -19 -101 -19 -439 0
-540 109 -595 515 -1074 1068 -1260 184 -61 267 -74 498 -74 232 -1 308 9 485
66 627 200 1078 788 1107 1443 5 110 4 122 -15 145 l-20 25 -736 3 -736 2 -2
746 -3 746 -24 19 c-19 16 -38 19 -115 18 -50 -1 -104 -4 -121 -6z m105 -861
l0 -717 -499 -499 -499 -499 -66 89 c-130 176 -217 368 -263 584 -22 99 -25
140 -25 300 0 160 3 201 25 300 120 554 525 979 1063 1116 53 13 130 28 172
33 43 4 80 9 85 10 4 0 7 -322 7 -717z m1513 -869 c-17 -183 -66 -357 -143
-518 -200 -414 -572 -699 -1035 -791 -133 -27 -395 -25 -532 4 -237 51 -456
155 -632 302 l-63 53 498 498 499 499 706 0 707 0 -5 -47z"/>
<path d="M3842 4932 c-12 -12 -24 -36 -27 -54 -3 -18 -5 -259 -3 -535 l3 -502
23 -23 23 -23 509 -3 c560 -3 562 -3 577 56 15 62 -107 336 -225 501 -171 242
-411 435 -674 546 -136 58 -178 65 -206 37z m248 -228 c260 -135 487 -366 618
-629 21 -44 43 -90 46 -102 l7 -23 -395 0 -396 0 0 405 c0 223 3 405 6 405 4
0 55 -25 114 -56z"/>
<path d="M300 2001 c-75 -23 -146 -87 -179 -161 -20 -44 -21 -63 -21 -785 l0
-740 24 -50 c28 -61 97 -126 157 -149 39 -15 87 -16 429 -14 433 3 424 2 503
81 54 54 75 109 83 212 l7 88 78 -6 c70 -5 91 -11 201 -65 264 -130 471 -192
793 -239 166 -24 595 -24 787 0 484 60 922 188 1346 393 230 111 374 197 427
257 129 143 86 377 -86 472 -46 26 -65 30 -129 30 -65 0 -92 -6 -201 -47 -288
-107 -652 -203 -1035 -272 -193 -35 -179 -38 -181 32 -3 89 -35 163 -104 236
-56 60 -70 69 -266 161 -302 142 -422 192 -541 226 -324 91 -697 110 -998 51
l-92 -18 -10 60 c-20 118 -61 179 -153 225 l-62 31 -376 -1 c-207 0 -387 -4
-401 -8z m765 -155 c19 -8 44 -30 55 -48 19 -32 20 -48 20 -743 0 -687 -1
-711 -20 -742 -37 -62 -43 -63 -422 -63 -385 0 -396 2 -430 70 -17 32 -18 89
-18 735 0 659 1 702 18 734 37 69 47 71 425 71 271 0 344 -3 372 -14z m980
-271 c135 -18 257 -45 370 -82 90 -29 580 -251 637 -289 93 -60 128 -204 70
-292 -38 -57 -84 -89 -146 -101 -68 -14 -89 -8 -300 89 -183 84 -206 89 -240
54 -27 -27 -31 -63 -9 -92 21 -28 311 -167 412 -198 118 -36 255 1 354 95 l54
51 182 30 c412 70 801 170 1179 304 90 32 107 35 140 26 59 -15 112 -86 112
-150 0 -67 -32 -105 -150 -174 -463 -275 -1063 -470 -1625 -527 -173 -17 -513
-15 -670 5 -275 35 -506 102 -745 216 -161 77 -203 89 -302 90 l-68 0 0 454 0
454 113 21 c148 27 155 28 349 29 101 1 212 -4 283 -13z"/>
<path d="M647 889 c-57 -14 -92 -34 -129 -79 -109 -126 -61 -333 92 -398 50
-21 138 -18 186 6 110 57 164 180 129 297 -36 124 -161 202 -278 174z m108
-175 c55 -60 17 -164 -59 -164 -26 0 -40 7 -60 31 -75 89 40 218 119 133z"/>
</g>
</svg>
