<?xml version="1.0" encoding="UTF-8"?>
<svg version="1.1" xmlns="http://www.w3.org/2000/svg" width="512" height="512">
<path d="M0 0 C1.44203286 -0.00187004 2.88406522 -0.00417151 4.32609677 -0.00686532 C8.27541127 -0.0129659 12.22470454 -0.01285179 16.17402267 -0.01167095 C20.43864008 -0.0114665 24.70325074 -0.01698991 28.96786499 -0.02172852 C37.31814604 -0.03002609 45.66842003 -0.03278295 54.01870486 -0.03334089 C60.8080769 -0.03381648 67.59744662 -0.03587336 74.38681793 -0.03904152 C93.64690091 -0.04784568 112.90697832 -0.05246127 132.16706333 -0.05171105 C133.20483587 -0.05167109 134.24260842 -0.05163113 135.31182861 -0.05158997 C136.87039376 -0.05152864 136.87039376 -0.05152864 138.46044508 -0.05146609 C155.29714072 -0.05105969 172.133814 -0.06062822 188.97050318 -0.07472833 C206.26904582 -0.08910062 223.56757754 -0.09599805 240.8661263 -0.09513456 C250.57360991 -0.09480288 260.28107006 -0.0975371 269.98854828 -0.10831261 C278.25400121 -0.11742883 286.51942005 -0.11958364 294.78487584 -0.11280318 C298.99899643 -0.10954364 303.21305166 -0.10946081 307.42716599 -0.11815643 C311.29119766 -0.12604742 315.15511243 -0.12456363 319.01914135 -0.1158723 C320.41076249 -0.11434302 321.80239248 -0.11613173 323.19400319 -0.12173238 C333.78964599 -0.1615226 344.72003818 -0.10341646 354.26885986 5.00871277 C355.2163208 5.50113464 356.16378174 5.99355652 357.13995361 6.50090027 C366.57125129 12.22264545 372.98002187 21.47951972 375.83135986 32.13371277 C376.87104892 38.84957105 376.97548849 45.52727612 376.96507263 52.30957031 C376.96733819 53.40318538 376.96960374 54.49680045 376.97193795 55.62355536 C376.97824479 59.27123915 376.97745073 62.91888547 376.97662354 66.5665741 C376.97961707 69.1887924 376.98302005 71.81101026 376.98680115 74.43322754 C376.99508416 80.80682534 376.99785491 87.18041389 376.99841353 93.55401663 C376.99888976 98.73772026 377.00094985 103.92142085 377.00411415 109.10512352 C377.01291395 123.82162138 377.01753453 138.53811197 377.01678368 153.25461248 C377.01672374 154.44302274 377.01672374 154.44302274 377.0166626 155.65544128 C377.01662172 156.4486888 377.01658084 157.24193632 377.01653872 158.05922165 C377.01613233 170.9124764 377.02570168 183.76570186 377.03980096 196.61894814 C377.05418415 209.83591813 377.06107009 223.05287385 377.06020719 236.26985186 C377.05987591 243.68242455 377.06259257 251.09496651 377.07338524 258.50753212 C377.0834729 265.48020032 377.08313508 272.45280273 377.07586861 279.42547417 C377.07482466 281.97957072 377.07717431 284.53367134 377.08322906 287.08776093 C377.09097879 290.58421764 377.08628438 294.08045216 377.07859802 297.5769043 C377.08374159 298.57858527 377.08888515 299.58026623 377.09418458 300.61230117 C377.02997463 313.90294555 374.63663549 325.68501193 366.51885986 336.50871277 C353.77678547 348.95445985 339.56282198 350.28819975 322.58006287 350.26742554 C321.12906772 350.26929554 319.67807307 350.271597 318.22707921 350.27429086 C314.25303099 350.28039174 310.27900386 350.28027729 306.30495203 350.27909648 C302.01376865 350.27889205 297.72259198 350.28441533 293.43141174 350.28915405 C285.02932876 350.29745162 276.62725279 350.30020848 268.22516605 350.30076643 C261.39430944 350.30124199 254.56345514 350.30329871 247.73259926 350.30646706 C228.35677557 350.31527095 208.98095741 350.31988681 189.60513171 350.31913658 C188.56112245 350.31909663 187.51711319 350.31905667 186.44146729 350.3190155 C184.87353683 350.31895418 184.87353683 350.31895418 183.273931 350.31889162 C166.33309543 350.31848516 149.39228208 350.32805548 132.45145293 350.34215387 C115.04782398 350.35652289 97.64420587 350.36342377 80.24057084 350.36256009 C70.47331542 350.36222832 60.70608331 350.36496681 50.93883324 350.37573814 C42.62321279 350.38485003 34.30762621 350.38701271 25.99200293 350.38022872 C21.75167792 350.37696709 17.51141789 350.37689396 13.27109909 350.38558197 C9.38429806 350.39346357 5.49761334 350.39199865 1.61081509 350.38329784 C0.20979053 350.38176651 -1.19124277 350.38356508 -2.592257 350.38915791 C-17.08932422 350.44316612 -29.63795831 348.77378813 -41.54364014 339.82121277 C-53.39169199 327.69106445 -55.32727558 314.18627058 -55.30235291 297.95785522 C-55.30461846 296.86424016 -55.30688402 295.77062509 -55.30921823 294.64387017 C-55.31552507 290.99618638 -55.314731 287.34854006 -55.31390381 283.70085144 C-55.31689735 281.07863314 -55.32030033 278.45641528 -55.32408142 275.834198 C-55.33236443 269.4606002 -55.33513519 263.08701165 -55.3356938 256.71340891 C-55.33617003 251.52970528 -55.33823012 246.34600469 -55.34139442 241.16230202 C-55.35019422 226.44580416 -55.3548148 211.72931357 -55.35406395 197.01281305 C-55.35402399 196.22053955 -55.35398404 195.42826605 -55.35394287 194.61198425 C-55.35390199 193.81873673 -55.35386111 193.02548921 -55.35381899 192.20820389 C-55.35341261 179.35494913 -55.36298196 166.50172368 -55.37708124 153.6484774 C-55.39146442 140.4315074 -55.39835037 127.21455169 -55.39748746 113.99757367 C-55.39715619 106.58500099 -55.39987284 99.17245903 -55.41066551 91.75989342 C-55.42075317 84.78722522 -55.42041536 77.81462281 -55.41314888 70.84195137 C-55.41210494 68.28785482 -55.41445458 65.7337542 -55.42050934 63.17966461 C-55.42825906 59.6832079 -55.42356465 56.18697338 -55.4158783 52.69052124 C-55.42102186 51.68884027 -55.42616542 50.6871593 -55.43146485 49.65512437 C-55.38682376 40.41498573 -54.72017998 30.96443874 -50.29364014 22.69621277 C-49.80121826 21.74875183 -49.30879639 20.80129089 -48.80145264 19.82511902 C-42.74842544 9.84776079 -33.37579269 4.00496673 -22.16864014 1.13371277 C-14.79033596 -0.0700828 -7.45958111 -0.00918303 0 0 Z M-29.16864014 29.13371277 C-32.34660405 33.67366122 -33.29181185 37.40773382 -33.3000679 42.88551044 C-33.30390905 43.84360813 -33.30775019 44.80170582 -33.31170774 45.78883678 C-33.31084125 46.83853041 -33.30997477 47.88822404 -33.30908203 48.96972656 C-33.31205315 50.08709865 -33.31502428 51.20447073 -33.31808543 52.35570258 C-33.32678234 56.1135006 -33.32828152 59.8712668 -33.32977295 63.6290741 C-33.33440038 66.31778108 -33.33940428 69.00648515 -33.34481812 71.69519043 C-33.35839606 79.00923824 -33.36442521 86.32328056 -33.36882877 93.63733888 C-33.37159189 98.20440109 -33.37582935 102.77146118 -33.38033295 107.33852196 C-33.3925245 119.9840281 -33.40282431 132.62953255 -33.40620804 145.27504444 C-33.4064276 146.08426851 -33.40664717 146.89349257 -33.40687339 147.72723858 C-33.40709167 148.53839371 -33.40730995 149.34954884 -33.40753484 150.18528444 C-33.4079783 151.82898255 -33.40842487 153.47268067 -33.40887451 155.11637878 C-33.40909594 155.93170905 -33.40931737 156.74703932 -33.40954551 157.58707657 C-33.41349392 170.79969887 -33.43094976 184.01226603 -33.45423403 197.22486702 C-33.47794804 210.79082853 -33.4904099 224.35676236 -33.49157596 237.92274493 C-33.49249265 245.53925402 -33.49824348 253.15569126 -33.51639557 260.77218056 C-33.53179716 267.25740636 -33.53691666 273.74253809 -33.52865747 280.22777871 C-33.52475124 283.53601546 -33.52731189 286.84402318 -33.53971481 290.15224457 C-33.55237996 293.74057615 -33.54658658 297.32842015 -33.53613281 300.91674805 C-33.54418922 301.95974951 -33.55224562 303.00275097 -33.56054616 304.07735854 C-33.5059244 312.0836634 -32.03557754 318.26677536 -26.16864014 324.13371277 C-18.9024124 328.8744259 -12.13902531 328.69921607 -3.66937256 328.64164734 C-2.19148488 328.64626011 -0.7136018 328.65261556 0.76427174 328.66055632 C4.8126411 328.67722123 8.86063224 328.66901634 12.90900278 328.65661144 C17.27990663 328.6475516 21.65074598 328.66153531 26.02163696 328.67253113 C34.57916966 328.69031096 43.13656196 328.68647875 51.69410014 328.67488056 C58.64942117 328.66584441 65.60470287 328.66462303 72.56002808 328.66897583 C74.04530651 328.66989523 74.04530651 328.66989523 75.56059057 328.6708332 C77.57217845 328.67211211 79.58376633 328.67340896 81.5953542 328.67472357 C100.45487287 328.6861278 119.31431375 328.67301811 138.17381966 328.6515221 C154.35365066 328.63365127 170.53336687 328.63675542 186.7131958 328.65519714 C205.5055553 328.67660662 224.29784664 328.68502917 243.09021664 328.67274809 C245.09437496 328.6714739 247.0985333 328.67021642 249.10269165 328.66897583 C250.58179047 328.66805018 250.58179047 328.66805018 252.09077007 328.66710582 C259.03716374 328.66365316 265.98351415 328.66947948 272.92990112 328.67889404 C281.39606908 328.69011624 289.8620887 328.6870693 298.32823968 328.66577107 C302.64723769 328.65526364 306.96598845 328.65113354 311.28498459 328.66436768 C315.24022759 328.67630385 319.19499459 328.66970913 323.15019453 328.64845747 C324.57942402 328.64399656 326.00869388 328.64624624 327.43789732 328.65596062 C336.25035329 328.71125544 343.26058786 328.57438689 349.88995361 322.13371277 C350.34499268 321.47371277 350.80003174 320.81371277 351.26885986 320.13371277 C351.7419458 319.47371277 352.21503174 318.81371277 352.70245361 318.13371277 C354.68305401 314.62482902 354.95678519 311.36444679 354.96278763 307.38191509 C354.96662877 306.4238174 354.97046992 305.46571971 354.97442746 304.47858876 C354.97312774 302.90404832 354.97312774 302.90404832 354.97180176 301.29769897 C354.97477288 300.18032689 354.977744 299.0629548 354.98080516 297.91172296 C354.98950207 294.15392494 354.99100125 290.39615874 354.99249268 286.63835144 C354.99712011 283.94964446 355.00212401 281.26094039 355.00753784 278.57223511 C355.02111579 271.2581873 355.02714493 263.94414497 355.0315485 256.63008666 C355.03431161 252.06302445 355.03854907 247.49596436 355.04305267 242.92890358 C355.05524422 230.28339744 355.06554403 217.63789299 355.06892776 204.9923811 C355.06914733 204.18315703 355.0693669 203.37393297 355.06959312 202.54018696 C355.06981139 201.72903183 355.07002967 200.91787669 355.07025456 200.0821411 C355.07069803 198.43844298 355.07114459 196.79474487 355.07159424 195.15104675 C355.07181567 194.33571648 355.0720371 193.52038622 355.07226524 192.68034897 C355.07621365 179.46772667 355.09366949 166.25515951 355.11695376 153.04255851 C355.14066776 139.47659701 355.15312962 125.91066318 355.15429568 112.34468061 C355.15521237 104.72817151 355.16096321 97.11173428 355.1791153 89.49524498 C355.19451689 83.01001918 355.19963639 76.52488744 355.19137719 70.03964683 C355.18747096 66.73141007 355.19003161 63.42340236 355.20243454 60.11518097 C355.21509968 56.52684939 355.20930631 52.93900539 355.19885254 49.35067749 C355.20690894 48.30767603 355.21496535 47.26467456 355.22326589 46.19006699 C355.16761707 38.03321959 353.60048024 32.24219317 347.83135986 26.13371277 C342.81510403 22.62233369 338.84374892 22.0092868 332.7989378 22.002285 C331.55520167 21.99844386 330.31146554 21.99460271 329.03004044 21.99064517 C327.64746323 21.99142541 326.26488606 21.99230419 324.88230896 21.99327087 C323.41541586 21.99068721 321.94852347 21.98767404 320.48163205 21.98426747 C316.44521994 21.97619451 312.4088256 21.97440774 308.37240636 21.97367001 C304.0212407 21.97181999 299.67008428 21.96427295 295.31892395 21.95753479 C285.80246665 21.94394927 276.28601356 21.93792653 266.76954818 21.93352413 C260.82890658 21.93076232 254.88826661 21.9265251 248.94762611 21.92201996 C232.50362214 21.90982746 216.05961947 21.89952781 199.61561108 21.89614487 C198.0367588 21.89581552 198.0367588 21.89581552 196.42601051 21.89547952 C195.37090964 21.89526124 194.31580877 21.89504296 193.22873515 21.89481807 C191.09066149 21.8943746 188.95258782 21.89392804 186.81451416 21.89347839 C185.22367314 21.89314625 185.22367314 21.89314625 183.60069392 21.89280739 C166.41116375 21.88885835 149.22167595 21.87140101 132.03216215 21.84811887 C114.38911642 21.82441506 96.74609195 21.81194347 79.10303003 21.81077695 C69.19498247 21.80985969 59.28699012 21.80409453 49.37895775 21.78595734 C40.94307521 21.77056951 32.50726494 21.76542813 24.07137104 21.77369544 C19.76673016 21.7776065 15.46223488 21.77665014 11.15761185 21.76263809 C7.21653586 21.74992663 3.27571532 21.75107232 -0.66536018 21.7632288 C-2.09066098 21.76519058 -3.51597971 21.76208519 -4.94125531 21.75338444 C-14.76654159 21.69720497 -21.74143221 22.1191275 -29.16864014 29.13371277 Z " fill="#000000" transform="translate(95.16864013671875,39.86628723144531)"/>
<path d="M0 0 C4.22206201 3.48662927 5.79254775 6.30446809 7.09301758 11.57739258 C7.25646164 12.21922485 7.4199057 12.86105713 7.58830261 13.52233887 C8.12381382 15.64260378 8.63412636 17.76809579 9.14453125 19.89453125 C9.52024494 21.40294676 9.89753069 22.91097146 10.27629089 24.41862488 C11.27349019 28.40568309 12.24954158 32.39762628 13.22113037 36.39099121 C14.18265032 40.32817179 15.16322901 44.26058331 16.14257812 48.19335938 C17.68327083 54.39047757 19.21429126 60.58989796 20.73681641 66.79150391 C22.80631825 75.21931671 24.88491335 83.64481515 26.98129845 92.06598473 C27.33234974 93.47783596 27.68249289 94.88991334 28.03168678 96.30222511 C28.51070265 98.23938287 28.99293612 100.17574416 29.4753418 102.11206055 C29.74678513 103.20552292 30.01822845 104.29898529 30.29789734 105.42558289 C30.89916286 107.9617591 30.89916286 107.9617591 32 110 C32.54414551 108.87505127 33.08829102 107.75010254 33.64892578 106.59106445 C35.68087333 102.40000613 37.7316439 98.21839332 39.78808594 94.03930664 C40.67374536 92.23289136 41.55435181 90.4239892 42.4296875 88.61254883 C43.69235532 86.00183962 44.97321886 83.40075833 46.2578125 80.80078125 C46.64244659 79.99538406 47.02708069 79.18998688 47.42337036 78.36018372 C47.99328201 77.21956734 47.99328201 77.21956734 48.57470703 76.0559082 C48.89891632 75.39194534 49.22312561 74.72798248 49.55715942 74.04389954 C52.020941 70.55375509 54.67994274 67.55635325 58.91674995 66.54036045 C61.14963854 66.35103838 63.3315211 66.3240453 65.57226562 66.35302734 C66.41206467 66.34426575 67.25186371 66.33550415 68.11711121 66.32647705 C70.88069005 66.30455102 73.64265617 66.31901108 76.40625 66.3359375 C78.33386541 66.3325674 80.26147876 66.32771316 82.18908691 66.32144165 C86.22408327 66.31407954 90.25852525 66.32475451 94.29345703 66.34814453 C99.45872373 66.37663189 104.6226914 66.36022437 109.78791046 66.33028221 C113.76688376 66.31219136 117.74555042 66.31797547 121.72453308 66.33092117 C123.62867894 66.33425024 125.53285288 66.33018569 127.43696594 66.31852341 C130.10130259 66.30578508 132.76355268 66.32523202 135.42773438 66.35302734 C136.60150887 66.33784561 136.60150887 66.33784561 137.79899597 66.32235718 C141.79491163 66.39936408 144.29065098 66.83541539 147.46936035 69.35684204 C150.4067995 72.42488678 151.08620411 73.7759986 151 78 C149.78448247 81.44396633 148.75386739 83.42025542 145.84858704 85.65449524 C142.34441876 87.30965797 139.33963423 87.40043043 135.54760742 87.34057617 C134.8153595 87.34101425 134.08311157 87.34145233 133.32867432 87.34190369 C130.92066305 87.33982217 128.51335761 87.3165221 126.10546875 87.29296875 C124.43110026 87.28737051 122.75672685 87.28310149 121.08235168 87.28010559 C116.6846042 87.26867474 112.28715597 87.23922285 107.88952637 87.20599365 C103.3983973 87.17525473 98.90721967 87.1615921 94.41601562 87.14648438 C85.61054006 87.11435133 76.8053073 87.06317645 68 87 C67.59192863 88.30068169 67.59192863 88.30068169 67.1756134 89.62763977 C66.04090345 92.88266452 64.71036224 95.86627699 63.19018555 98.95776367 C62.34371712 100.6843647 62.34371712 100.6843647 61.48014832 102.44584656 C60.86617569 103.68680339 60.25168665 104.92750483 59.63671875 106.16796875 C59.16891463 107.11393134 59.16891463 107.11393134 58.69165993 108.07900429 C57.04352312 111.41097619 55.3905673 114.74050522 53.73364258 118.06811523 C52.02671879 121.49856553 50.33673656 124.93707801 48.650424 128.37769604 C47.34632732 131.03067916 46.02977851 133.67733775 44.70978737 136.32244301 C44.08117169 137.58755702 43.45724871 138.85501437 42.83820152 140.12483788 C41.97140388 141.89990695 41.08508747 143.66540414 40.19799805 145.43041992 C39.69995163 146.43602463 39.20190521 147.44162933 38.68876648 148.47770691 C36.758475 151.36073479 35.11125544 152.51791368 32 154 C27.90676219 154.69672133 26.44317687 154.29727273 22.96685791 151.96543884 C19.49439804 148.92986795 18.46921118 145.44426797 17.46777344 141.05297852 C17.17049662 139.87568475 17.17049662 139.87568475 16.8672142 138.67460728 C16.44400596 136.98877724 16.03063098 135.30045333 15.62626648 133.61000443 C15.00378416 131.01577074 14.35204466 128.43070052 13.69055176 125.84616089 C12.52149661 121.26535004 11.37778083 116.67866401 10.24240875 112.08939934 C9.496538 109.07520996 8.74730693 106.06187241 7.99725342 103.04872131 C5.86942524 94.49804813 3.74790813 85.94581183 1.62744141 77.39331055 C0.3213458 72.12638564 -0.98812721 66.86030959 -2.29962921 61.59472847 C-3.03855423 58.62330391 -3.7734215 55.6508939 -4.50823975 52.67845154 C-4.95676848 50.87664351 -5.4055074 49.07488779 -5.85449219 47.27319336 C-6.15991692 46.03060257 -6.15991692 46.03060257 -6.47151184 44.76290894 C-7.1358045 41.08157317 -7.1358045 41.08157317 -9 38 C-9.65484375 38.95777344 -10.3096875 39.91554687 -10.984375 40.90234375 C-41.24016047 85.08005349 -41.24016047 85.08005349 -47 87 C-48.97681043 87.10879321 -50.95704846 87.15890089 -52.93676758 87.17700195 C-54.15846146 87.18983719 -55.38015533 87.20267242 -56.63887024 87.21589661 C-57.97408644 87.22406461 -59.30930724 87.23150823 -60.64453125 87.23828125 C-61.65519937 87.24439454 -61.65519937 87.24439454 -62.68628502 87.25063133 C-66.25284898 87.27147173 -69.8193747 87.28578198 -73.38598633 87.29516602 C-77.06135097 87.30622447 -80.73610918 87.34062261 -84.41125965 87.38033772 C-87.2449401 87.40653794 -90.07847678 87.41486082 -92.91226768 87.41844749 C-94.92302967 87.4256593 -96.93369323 87.45208288 -98.94429016 87.47883606 C-110.32466445 87.45179301 -110.32466445 87.45179301 -115 83 C-117.28632839 79.6657711 -117.05888717 77.21098532 -116.375 73.375 C-115.61873232 70.43775392 -115.20560273 69.21223507 -113.0625 67 C-109.44045669 65.24385779 -107.1787523 64.94840861 -103.25439453 65.47705078 C-76.91938759 69.2862024 -76.91938759 69.2862024 -52.29498291 62.20037842 C-41.59697249 52.68975982 -35.11776433 39.12361062 -28.83935547 26.48876953 C-26.07833859 21.00535733 -22.91394185 15.87811498 -19.50390625 10.77734375 C-19.01083481 10.03102188 -18.51776337 9.28470001 -18.00975037 8.51576233 C-13.14151784 1.35871705 -9.07806287 -2.19125655 0 0 Z " fill="#000000" transform="translate(239,139)"/>
<path d="M0 0 C1.02909392 -0.00538554 2.05818785 -0.01077108 3.11846644 -0.01631981 C6.57157619 -0.03064316 10.02430497 -0.02348471 13.47743225 -0.01637268 C15.95116485 -0.02207393 18.42489481 -0.02903724 20.89862061 -0.03717041 C26.92321614 -0.05327637 32.94766162 -0.055197 38.97226398 -0.04995751 C43.86912957 -0.04591589 48.76596434 -0.04735926 53.66282845 -0.05270576 C54.35980969 -0.05345419 55.05679094 -0.05420261 55.77489283 -0.05497371 C57.19081478 -0.05650519 58.60673672 -0.05804354 60.02265865 -0.05958868 C73.30053765 -0.07331626 86.57835773 -0.06787422 99.85623539 -0.05640347 C112.00252594 -0.04647071 124.14866417 -0.05941196 136.29493123 -0.08333766 C148.76821123 -0.1077223 161.24142028 -0.11733811 173.71472365 -0.11068493 C180.71695451 -0.1071913 187.71906821 -0.1094342 194.72128105 -0.12693596 C201.30488737 -0.14318736 207.88824979 -0.13848618 214.4718647 -0.11963081 C216.88979663 -0.11593578 219.30775 -0.11907985 221.72566223 -0.1295166 C225.02325733 -0.14266502 228.31987885 -0.13123256 231.61743164 -0.11352539 C232.57706296 -0.1231304 233.53669429 -0.1327354 234.52540535 -0.14263147 C240.2740686 -0.07900181 243.47529049 0.59352166 247.87220764 4.38768005 C249.78524227 7.46517055 249.87474162 9.24577713 249.80970764 12.88768005 C248.67801642 17.1126606 247.31151529 18.73003324 243.87220764 21.38768005 C239.05006397 22.85432955 233.96369907 22.52962906 228.97219849 22.52139282 C227.96760588 22.52365838 226.96301327 22.52592394 225.92797846 22.52825814 C222.55789541 22.5345941 219.18785263 22.53376904 215.81776428 22.53294373 C213.40314685 22.53593543 210.9885299 22.53933799 208.57391357 22.54312134 C202.69374485 22.55104491 196.81358559 22.5541759 190.93341262 22.55473372 C186.15383326 22.55520909 181.3742572 22.5572649 176.59467888 22.56043434 C163.04157994 22.56923872 149.48848891 22.57385397 135.93538708 22.57310387 C135.20498953 22.57306391 134.47459197 22.57302396 133.72206116 22.57298279 C132.99077129 22.57294191 132.25948143 22.57290103 131.50603127 22.57285891 C119.65077937 22.57245233 107.79555922 22.58202527 95.94031651 22.59612115 C83.76537337 22.6104829 71.59044573 22.61739147 59.41549391 22.61652738 C52.58096853 22.61619537 45.74647644 22.61894405 38.91195869 22.62970543 C32.48600377 22.63975878 26.06010103 22.63947716 19.63414192 22.6321888 C17.27426043 22.63114091 14.9143746 22.63351787 12.55450058 22.63954926 C9.33598379 22.64724316 6.11771179 22.64264152 2.89920044 22.63491821 C1.49477199 22.64263356 1.49477199 22.64263356 0.06197125 22.65050477 C-5.75082057 22.61962868 -10.59124743 22.2386723 -15.44029236 18.70018005 C-17.75362144 15.53006242 -18.06042764 13.2948338 -18.12779236 9.38768005 C-16.95521462 6.00023325 -15.90345136 4.03177358 -13.14359188 1.74003506 C-8.76048176 -0.22545398 -4.75280276 -0.02969715 0 0 Z " fill="#000000" transform="translate(140.12779235839844,449.61231994628906)"/>
<path d="M0 0 C0.65389709 -0.0065712 1.30779419 -0.0131424 1.98150635 -0.01991272 C4.14945591 -0.03965136 6.3173361 -0.05131086 8.48535156 -0.0612793 C9.22624275 -0.06535482 9.96713394 -0.06943035 10.73047638 -0.07362938 C14.65364809 -0.0944948 18.57678479 -0.10879315 22.5 -0.11816406 C26.54642069 -0.12921598 30.59228955 -0.16359973 34.63851547 -0.20333576 C37.75442504 -0.22952424 40.87020374 -0.23785795 43.98621368 -0.24144554 C45.47731493 -0.24630757 46.96841049 -0.25791075 48.45940399 -0.27648354 C50.55150069 -0.30091931 52.64217831 -0.29990278 54.734375 -0.29296875 C55.92303162 -0.29883499 57.11168823 -0.30470123 58.33636475 -0.31074524 C62.32085299 0.28003053 64.49826341 1.68646996 67.62597656 4.17700195 C69.48581946 7.89668774 69.19912346 12.12676388 68.62597656 16.17700195 C65.97017464 19.79184346 63.97979855 21.41565875 59.62597656 22.17700195 C57.54440881 22.27374383 55.46002309 22.31512896 53.3762207 22.32226562 C52.11133316 22.32864548 50.84644562 22.33502533 49.54322815 22.34159851 C48.16586343 22.34312722 46.78849819 22.34424116 45.41113281 22.3449707 C43.99393175 22.34818553 42.57673101 22.35154977 41.15953064 22.35505676 C38.19138825 22.36103857 35.22327494 22.36289761 32.25512695 22.36230469 C28.45769964 22.36220305 24.66045923 22.37586145 20.86307621 22.3930769 C17.93679452 22.40421136 15.01055783 22.40622346 12.08425713 22.40569496 C10.68446648 22.40687265 9.28467458 22.41128261 7.88490486 22.41902733 C5.92500352 22.42885714 3.96504718 22.42467721 2.00512695 22.41992188 C0.89134171 22.42134689 -0.22244354 22.42277191 -1.36997986 22.42424011 C-5.43357503 22.08979896 -8.29184958 20.87895256 -11.68652344 18.67700195 C-14.34827851 14.73366111 -14.26039006 10.78014963 -13.37402344 6.17700195 C-9.23639535 0.84163942 -6.5159167 0.05410834 0 0 Z " fill="#000000" transform="translate(228.3740234375,408.822998046875)"/>
</svg>
